<svg xmlns="http://www.w3.org/2000/svg" width="240" height="240" viewBox="0 0 240 240"><rect width="240" height="240" rx="36" fill="#07171d"/><circle cx="120" cy="120" r="98" fill="none" stroke="#2fd2e0" stroke-width="6"/><circle cx="120" cy="120" r="80" fill="none" stroke="#19788a" stroke-width="16" opacity="0.55"/><circle cx="120" cy="120" r="60" fill="none" stroke="#2fd2e0" stroke-width="2" opacity="0.7"/><g transform="translate(120.0 22.0) rotate(0.0)"><polygon points="-13,9 0,-11 13,9 8,9 0,-1 -8,9" fill="#ff2b2b" stroke="#ff7a7a" stroke-width="1"/></g><g transform="translate(183.0 44.9) rotate(40.0)"><polygon points="-13,9 0,-11 13,9 8,9 0,-1 -8,9" fill="#ff2b2b" stroke="#ff7a7a" stroke-width="1"/></g><g transform="translate(216.5 103.0) rotate(80.0)"><polygon points="-13,9 0,-11 13,9 8,9 0,-1 -8,9" fill="#ff2b2b" stroke="#ff7a7a" stroke-width="1"/></g><g transform="translate(204.9 169.0) rotate(120.0)"><polygon points="-13,9 0,-11 13,9 8,9 0,-1 -8,9" fill="#ff2b2b" stroke="#ff7a7a" stroke-width="1"/></g><g transform="translate(153.5 212.1) rotate(160.0)"><polygon points="-13,9 0,-11 13,9 8,9 0,-1 -8,9" fill="#ff2b2b" stroke="#ff7a7a" stroke-width="1"/></g><g transform="translate(86.5 212.1) rotate(200.0)"><polygon points="-13,9 0,-11 13,9 8,9 0,-1 -8,9" fill="#ff2b2b" stroke="#ff7a7a" stroke-width="1"/></g><g transform="translate(35.1 169.0) rotate(240.0)"><polygon points="-13,9 0,-11 13,9 8,9 0,-1 -8,9" fill="#ff2b2b" stroke="#ff7a7a" stroke-width="1"/></g><g transform="translate(23.5 103.0) rotate(280.0)"><polygon points="-13,9 0,-11 13,9 8,9 0,-1 -8,9" fill="#ff2b2b" stroke="#ff7a7a" stroke-width="1"/></g><g transform="translate(57.0 44.9) rotate(320.0)"><polygon points="-13,9 0,-11 13,9 8,9 0,-1 -8,9" fill="#ff2b2b" stroke="#ff7a7a" stroke-width="1"/></g><g stroke="#2fd2e0" stroke-width="6" fill="none" stroke-linejoin="round"><polygon points="120,104 150,150 90,150" fill="none"/><circle cx="120" cy="90" r="9"/></g></svg>